<svg width="64" height="64" viewBox="0 0 64 64" fill="none" xmlns="http://www.w3.org/2000/svg">
  <rect width="64" height="64" rx="18" fill="#0B1020"/>
  <path d="M15 19C15 14.5817 18.5817 11 23 11H41C45.4183 11 49 14.5817 49 19V35C49 39.4183 45.4183 43 41 43H33.5L23.5 51V43H23C18.5817 43 15 39.4183 15 35V19Z" fill="url(#paint0_linear)"/>
  <path d="M24.25 36L31.12 18.8H34.88L41.75 36H37.92L36.5 32.18H29.42L28.03 36H24.25ZM30.55 29.1H35.38L32.95 22.48L30.55 29.1Z" fill="white"/>
  <circle cx="48" cy="17" r="5" fill="#00E6B8"/>
  <defs>
    <linearGradient id="paint0_linear" x1="15" y1="11" x2="51.5" y2="47.5" gradientUnits="userSpaceOnUse">
      <stop stop-color="#7D5AFF"/>
      <stop offset="1" stop-color="#00D2AA"/>
    </linearGradient>
  </defs>
</svg>
